<?xml version="1.0" encoding="UTF-8"?>
<svg xmlns="http://www.w3.org/2000/svg" xmlns:xlink="http://www.w3.org/1999/xlink" width="361px" height="px" viewBox="0 0 362 181" version="1.1">
<defs>
<linearGradient id="linear0" gradientUnits="userSpaceOnUse" x1="262.624" y1="547.206" x2="375.377" y2="432.484" gradientTransform="matrix(0.744806,0,0,0.744806,-57.505145,-306.347146)">
<stop offset="0" style="stop-color:rgb(2.745098%,0.392157%,20.784314%);stop-opacity:1;"/>
<stop offset="1" style="stop-color:rgb(38.039216%,17.647059%,31.372549%);stop-opacity:1;"/>
</linearGradient>
</defs>
<g id="surface1">
<path style=" stroke:none;fill-rule:nonzero;fill:url(#linear0);" d="M 148 10.4375 L 212.542969 10.4375 C 221.050781 10.4375 227.945312 17.335938 227.945312 25.839844 L 227.945312 90.777344 C 227.945312 99.285156 221.050781 106.179688 212.542969 106.179688 L 148 106.179688 C 139.496094 106.179688 132.597656 99.285156 132.597656 90.777344 L 132.597656 25.839844 C 132.597656 17.335938 139.496094 10.4375 148 10.4375 Z M 148 10.4375 "/>
<path style=" stroke:none;fill-rule:nonzero;fill:rgb(100%,100%,100%);fill-opacity:1;" d="M 180.992188 51.65625 C 183.425781 51.65625 185.273438 51.132812 186.53125 50.066406 C 187.789062 49 188.417969 47.445312 188.417969 45.378906 C 188.417969 43.339844 187.789062 41.789062 186.53125 40.730469 C 185.265625 39.644531 183.425781 39.101562 180.992188 39.101562 L 172.441406 39.101562 L 172.441406 51.65625 L 180.992188 51.65625 M 181.511719 77.59375 C 184.617188 77.59375 186.945312 76.945312 188.496094 75.648438 C 190.074219 74.351562 190.867188 72.390625 190.867188 69.769531 C 190.867188 67.199219 190.089844 65.28125 188.535156 64.011719 C 186.984375 62.714844 184.644531 62.0625 181.511719 62.0625 L 172.441406 62.0625 L 172.441406 77.597656 L 181.511719 77.597656 M 195.882812 56.265625 C 199.199219 57.21875 201.769531 58.980469 203.589844 61.546875 C 205.410156 64.117188 206.320312 67.269531 206.320312 71.003906 C 206.320312 76.722656 204.367188 80.988281 200.460938 83.792969 C 196.550781 86.601562 190.613281 88.003906 182.636719 88.003906 L 156.988281 88.003906 L 156.988281 28.695312 L 180.191406 28.695312 C 188.511719 28.695312 194.535156 29.941406 198.253906 32.429688 C 202 34.917969 203.871094 38.90625 203.871094 44.386719 C 203.871094 47.273438 203.191406 49.738281 201.824219 51.777344 C 200.460938 53.789062 198.472656 55.277344 195.882812 56.265625 "/>
<path style=" stroke:none;fill-rule:nonzero;fill:rgb(13.72549%,5.882353%,23.921569%);fill-opacity:1;" d="M 46.539062 138.042969 L 46.539062 154.152344 L 56.082031 154.152344 C 59.28125 154.152344 61.652344 153.492188 63.183594 152.179688 C 64.734375 150.84375 65.507812 148.808594 65.507812 146.085938 C 65.507812 143.371094 64.730469 141.3125 63.183594 140.015625 C 61.652344 138.699219 59.285156 138.042969 56.082031 138.042969 L 46.539062 138.042969 M 46.539062 119.953125 L 46.539062 133.214844 L 55.347656 133.214844 C 58.253906 133.214844 60.414062 132.671875 61.828125 131.59375 C 63.257812 130.492188 63.976562 128.824219 63.976562 126.585938 C 63.976562 124.363281 63.257812 122.707031 61.828125 121.609375 C 60.394531 120.511719 58.25 119.957031 55.347656 119.957031 L 46.539062 119.957031 M 40.585938 115.070312 L 55.789062 115.070312 C 60.328125 115.070312 63.824219 116.015625 66.277344 117.898438 C 68.734375 119.785156 69.960938 122.46875 69.960938 125.941406 C 69.960938 128.632812 69.332031 130.777344 68.074219 132.367188 C 66.816406 133.960938 64.96875 134.949219 62.535156 135.34375 C 65.460938 135.96875 67.730469 137.289062 69.339844 139.265625 C 70.96875 141.25 71.753906 143.730469 71.753906 146.714844 C 71.753906 150.644531 70.417969 153.679688 67.75 155.820312 C 65.078125 157.960938 61.277344 159.03125 56.34375 159.03125 L 40.554688 159.03125 L 40.554688 115.054688 "/>
<path style=" stroke:none;fill-rule:nonzero;fill:rgb(13.72549%,5.882353%,23.921569%);fill-opacity:1;" d="M 94.195312 129.847656 C 91.46875 129.757812 88.878906 131.042969 87.300781 133.265625 C 85.613281 135.53125 84.769531 138.628906 84.769531 142.578125 C 84.769531 146.527344 85.605469 149.636719 87.273438 151.917969 C 88.960938 154.179688 91.269531 155.304688 94.195312 155.304688 C 96.914062 155.390625 99.492188 154.105469 101.058594 151.886719 C 102.746094 149.609375 103.59375 146.503906 103.59375 142.578125 C 103.59375 138.667969 102.746094 135.578125 101.058594 133.296875 C 99.367188 131 97.082031 129.847656 94.195312 129.847656 M 94.195312 125.253906 C 98.90625 125.253906 102.640625 126.789062 105.304688 129.847656 C 107.964844 132.910156 109.339844 137.15625 109.339844 142.578125 C 109.339844 148.003906 107.992188 152.222656 105.304688 155.308594 C 102.613281 158.375 98.90625 159.90625 94.195312 159.90625 C 89.460938 159.90625 85.75 158.371094 83.035156 155.308594 C 80.363281 152.226562 79.027344 147.984375 79.027344 142.578125 C 79.027344 137.160156 80.363281 132.917969 83.035156 129.847656 C 85.726562 126.785156 89.433594 125.253906 94.195312 125.253906 "/>
<path style=" stroke:none;fill-rule:nonzero;fill:rgb(13.72549%,5.882353%,23.921569%);fill-opacity:1;" d="M 130.777344 129.847656 C 128.050781 129.757812 125.460938 131.042969 123.886719 133.265625 C 122.195312 135.53125 121.351562 138.628906 121.351562 142.578125 C 121.351562 146.527344 122.1875 149.636719 123.855469 151.917969 C 125.542969 154.179688 127.851562 155.304688 130.777344 155.304688 C 133.496094 155.390625 136.074219 154.105469 137.640625 151.886719 C 139.332031 149.609375 140.175781 146.503906 140.175781 142.578125 C 140.175781 138.667969 139.332031 135.578125 137.640625 133.296875 C 135.953125 131 133.664062 129.847656 130.777344 129.847656 M 130.777344 125.253906 C 135.492188 125.253906 139.226562 126.789062 141.886719 129.847656 C 144.546875 132.910156 145.921875 137.15625 145.921875 142.578125 C 145.921875 148.003906 144.578125 152.222656 141.886719 155.308594 C 139.195312 158.375 135.492188 159.90625 130.777344 159.90625 C 126.042969 159.90625 122.332031 158.371094 119.617188 155.308594 C 116.945312 152.226562 115.609375 147.984375 115.609375 142.578125 C 115.609375 137.160156 116.945312 132.917969 119.617188 129.847656 C 122.308594 126.785156 126.019531 125.253906 130.777344 125.253906 "/>
<path style=" stroke:none;fill-rule:nonzero;fill:rgb(13.72549%,5.882353%,23.921569%);fill-opacity:1;" d="M 159.933594 116.679688 L 159.933594 126.046875 L 171.097656 126.046875 L 171.097656 130.257812 L 159.933594 130.257812 L 159.933594 148.167969 C 159.933594 150.859375 160.296875 152.589844 161.019531 153.359375 C 161.765625 154.125 163.269531 154.503906 165.527344 154.503906 L 171.097656 154.503906 L 171.097656 159.042969 L 165.523438 159.042969 C 161.339844 159.042969 158.453125 158.265625 156.867188 156.71875 C 155.277344 155.148438 154.453125 152.300781 154.453125 148.175781 L 154.453125 130.257812 L 150.476562 130.257812 L 150.476562 126.046875 L 154.453125 126.046875 L 154.453125 116.683594 L 159.90625 116.683594 M 198.957031 127.023438 L 198.957031 132.152344 C 197.445312 131.371094 195.84375 130.777344 194.1875 130.382812 C 192.535156 129.992188 190.828125 129.796875 189.058594 129.796875 C 186.367188 129.796875 184.34375 130.207031 182.988281 131 C 181.652344 131.824219 180.984375 133.066406 180.984375 134.710938 C 180.984375 135.96875 181.46875 136.960938 182.433594 137.6875 C 183.398438 138.394531 185.328125 139.074219 188.238281 139.71875 L 190.09375 140.132812 C 193.941406 140.957031 196.667969 142.125 198.28125 143.636719 C 199.910156 145.132812 200.695312 147.222656 200.695312 149.914062 C 200.785156 152.792969 199.425781 155.523438 197.074219 157.1875 C 194.664062 158.976562 191.332031 159.90625 187.121094 159.90625 C 185.351562 159.90625 183.507812 159.722656 181.582031 159.375 C 179.675781 159.070312 177.660156 158.527344 175.542969 157.839844 L 175.542969 152.246094 C 177.546875 153.285156 179.519531 154.070312 181.464844 154.597656 C 183.347656 155.101562 185.289062 155.359375 187.238281 155.363281 C 189.789062 155.363281 191.753906 154.933594 193.128906 154.066406 C 194.503906 153.183594 195.195312 151.945312 195.195312 150.355469 C 195.195312 148.882812 194.691406 147.753906 193.691406 146.96875 C 192.707031 146.183594 190.539062 145.460938 187.179688 144.699219 L 185.296875 144.261719 C 181.9375 143.554688 179.511719 142.472656 178.019531 141.019531 C 176.527344 139.546875 175.78125 137.53125 175.78125 134.980469 C 175.78125 131.875 176.882812 129.480469 179.082031 127.792969 C 181.28125 126.101562 184.402344 125.257812 188.449219 125.257812 C 190.34375 125.25 192.234375 125.394531 194.105469 125.699219 C 195.777344 125.964844 197.414062 126.410156 198.996094 127.023438 M 214.480469 116.675781 L 214.480469 126.042969 L 225.640625 126.042969 L 225.640625 130.253906 L 214.480469 130.253906 L 214.480469 148.167969 C 214.480469 150.859375 214.839844 152.585938 215.566406 153.355469 C 216.308594 154.121094 217.8125 154.5 220.070312 154.5 L 225.648438 154.5 L 225.648438 159.039062 L 220.078125 159.039062 C 215.894531 159.039062 213.007812 158.261719 211.421875 156.714844 C 209.832031 155.148438 209.007812 152.296875 209.007812 148.171875 L 209.007812 130.253906 L 205.03125 130.253906 L 205.03125 126.042969 L 209.007812 126.042969 L 209.007812 116.683594 L 214.484375 116.683594 M 251.589844 131.121094 C 250.964844 130.761719 250.289062 130.5 249.585938 130.351562 C 248.816406 130.167969 248.027344 130.078125 247.234375 130.085938 C 244.167969 130.085938 241.8125 131.089844 240.164062 133.09375 C 238.535156 135.078125 237.75 137.933594 237.75 141.664062 L 237.75 159.046875 L 232.296875 159.046875 L 232.296875 126.046875 L 237.75 126.046875 L 237.75 131.171875 C 238.890625 129.171875 240.375 127.6875 242.199219 126.722656 C 244.023438 125.742188 246.242188 125.253906 248.855469 125.253906 C 249.269531 125.253906 249.683594 125.285156 250.09375 125.339844 L 251.597656 125.542969 L 251.625 131.113281 M 272.0625 142.457031 C 267.679688 142.457031 264.644531 142.957031 262.957031 143.957031 C 261.265625 144.960938 260.421875 146.667969 260.421875 149.085938 C 260.421875 151.011719 261.050781 152.542969 262.308594 153.679688 C 263.585938 154.796875 265.3125 155.363281 267.496094 155.363281 C 270.5 155.363281 272.910156 154.300781 274.714844 152.179688 C 276.539062 150.066406 277.453125 147.203125 277.453125 143.664062 L 277.453125 142.460938 L 272.0625 142.460938 M 282.875 140.21875 L 282.875 159.042969 L 277.453125 159.042969 L 277.453125 154.035156 C 276.25 156.039062 274.679688 157.523438 272.832031 158.488281 C 270.984375 159.429688 268.726562 159.90625 266.054688 159.90625 C 262.675781 159.90625 259.984375 158.964844 257.980469 157.078125 C 255.996094 155.171875 255.007812 152.628906 255.007812 149.445312 C 255.007812 145.734375 256.214844 142.9375 258.71875 141.050781 C 261.222656 139.164062 264.921875 138.222656 269.878906 138.222656 L 277.480469 138.222656 L 277.480469 137.691406 C 277.480469 135.199219 276.660156 133.273438 275.007812 131.917969 C 273.378906 130.542969 271.082031 129.855469 268.117188 129.855469 C 266.230469 129.855469 264.394531 130.082031 262.605469 130.535156 C 260.808594 130.992188 259.078125 131.671875 257.453125 132.566406 L 257.453125 127.558594 C 259.4375 126.792969 261.359375 126.222656 263.226562 125.851562 C 265.015625 125.46875 266.84375 125.269531 268.675781 125.265625 C 273.449219 125.265625 277.015625 126.472656 279.371094 128.972656 C 281.726562 131.476562 282.90625 135.199219 282.90625 140.226562 M 299.046875 154.089844 L 299.046875 171.589844 L 293.59375 171.589844 L 293.59375 126.046875 L 299.046875 126.046875 L 299.046875 131.054688 C 300.183594 129.09375 301.617188 127.636719 303.347656 126.695312 C 305.097656 125.730469 307.179688 125.25 309.589844 125.25 C 313.421875 125.160156 317.058594 126.941406 319.339844 130.019531 C 321.855469 133.203125 323.113281 137.382812 323.113281 142.570312 C 323.113281 147.757812 321.855469 151.9375 319.339844 155.121094 C 317.058594 158.199219 313.421875 159.980469 309.589844 159.890625 C 307.179688 159.890625 305.066406 159.421875 303.347656 158.472656 C 301.617188 157.507812 300.183594 156.050781 299.046875 154.085938 M 317.484375 142.566406 C 317.484375 138.578125 316.664062 135.457031 315.011719 133.199219 C 313.382812 130.921875 311.132812 129.78125 308.265625 129.78125 C 305.574219 129.691406 303.019531 130.980469 301.492188 133.199219 C 299.863281 135.464844 299.078125 138.582031 299.078125 142.566406 C 299.078125 146.550781 299.894531 149.6875 301.492188 151.964844 C 303.140625 154.226562 305.402344 155.351562 308.265625 155.351562 C 311.132812 155.351562 313.382812 154.222656 315.011719 151.964844 C 316.664062 149.6875 317.484375 146.550781 317.484375 142.566406 "/>
</g>
</svg>
