<?xml version="1.0" encoding="UTF-8"?>
<svg xmlns="http://www.w3.org/2000/svg" xmlns:xlink="http://www.w3.org/1999/xlink" width="361px" height="px" viewBox="0 0 362 181" version="1.1">
<g id="surface1">
<path style=" stroke:none;fill-rule:nonzero;fill:rgb(93.72549%,32.54902%,24.705882%);fill-opacity:1;" d="M 96.695312 133.808594 C 96.003906 133.8125 95.363281 133.449219 95.011719 132.855469 L 80.183594 108.125 L 52.453125 115.667969 C 51.585938 115.878906 50.683594 115.472656 50.265625 114.683594 L 17.859375 53.773438 C 17.554688 53.207031 17.550781 52.527344 17.84375 51.957031 C 18.136719 51.386719 18.6875 50.992188 19.324219 50.90625 L 46.835938 47.207031 C 47.613281 47.101562 48.378906 47.464844 48.785156 48.136719 L 81.96875 103.566406 L 120.5625 93.066406 L 107.695312 74.890625 C 107.316406 74.367188 107.222656 73.691406 107.441406 73.082031 C 107.660156 72.476562 108.164062 72.015625 108.789062 71.851562 L 126.84375 67.582031 C 127.582031 67.40625 128.351562 67.671875 128.828125 68.261719 L 144.453125 87.773438 C 144.867188 88.289062 144.992188 88.980469 144.789062 89.605469 C 144.582031 90.234375 144.074219 90.71875 143.4375 90.890625 L 127.027344 95.367188 L 141.394531 115.582031 C 141.75 116.082031 141.851562 116.722656 141.664062 117.3125 C 141.476562 117.898438 141.023438 118.363281 140.441406 118.566406 L 97.316406 133.691406 C 97.117188 133.761719 96.90625 133.804688 96.691406 133.808594 Z M 84.109375 107.050781 L 97.550781 129.464844 L 136.714844 115.753906 L 123.039062 96.472656 Z M 22.644531 54.390625 L 52.972656 111.464844 L 78.140625 104.636719 L 46.089844 51.265625 Z M 112.640625 75.007812 L 124.710938 91.976562 L 139.675781 87.90625 L 126.65625 71.6875 Z M 165.09375 69.082031 L 169.015625 69.082031 L 169.015625 111.132812 L 165.109375 111.132812 Z M 207.328125 80.796875 L 207.328125 111.132812 L 203.472656 111.132812 L 203.472656 105.886719 C 201.980469 107.753906 200.101562 109.289062 197.964844 110.375 C 192.003906 113.222656 184.890625 111.949219 180.292969 107.210938 C 177.292969 104.199219 175.648438 100.097656 175.734375 95.847656 C 175.667969 91.640625 177.332031 87.589844 180.332031 84.636719 C 183.21875 81.605469 187.246094 79.917969 191.429688 79.984375 C 193.785156 79.953125 196.109375 80.496094 198.195312 81.574219 C 200.316406 82.722656 202.132812 84.355469 203.507812 86.339844 L 203.507812 80.789062 Z M 191.730469 83.8125 C 187.40625 83.785156 183.414062 86.125 181.324219 89.910156 C 179.144531 93.703125 179.144531 98.371094 181.324219 102.164062 C 182.359375 104.050781 183.882812 105.621094 185.734375 106.714844 C 187.53125 107.785156 189.585938 108.351562 191.679688 108.34375 C 193.808594 108.34375 195.902344 107.785156 197.75 106.726562 C 199.597656 105.710938 201.128906 104.191406 202.160156 102.351562 C 203.210938 100.441406 203.746094 98.289062 203.707031 96.109375 C 203.796875 92.824219 202.542969 89.644531 200.238281 87.304688 C 198.011719 85.003906 194.929688 83.734375 191.726562 83.804688 Z M 214.632812 80.796875 L 218.621094 80.796875 L 218.621094 85.230469 C 219.617188 83.699219 220.898438 82.371094 222.390625 81.316406 C 223.609375 80.484375 225.042969 80.03125 226.519531 80.019531 C 227.746094 80.058594 228.941406 80.417969 229.988281 81.054688 L 227.941406 84.375 C 227.28125 84.054688 226.5625 83.875 225.832031 83.84375 C 224.417969 83.886719 223.074219 84.460938 222.0625 85.445312 C 220.679688 86.804688 219.71875 88.53125 219.289062 90.421875 C 218.824219 92.152344 218.59375 95.644531 218.59375 100.902344 L 218.59375 111.167969 L 214.605469 111.167969 Z M 263.503906 80.796875 L 263.503906 111.132812 L 259.652344 111.132812 L 259.652344 105.886719 C 258.160156 107.753906 256.28125 109.289062 254.144531 110.375 C 248.183594 113.222656 241.070312 111.949219 236.46875 107.210938 C 233.472656 104.199219 231.828125 100.097656 231.914062 95.847656 C 231.851562 91.640625 233.511719 87.582031 236.519531 84.636719 C 239.40625 81.605469 243.429688 79.917969 247.617188 79.984375 C 249.96875 79.953125 252.292969 80.496094 254.378906 81.574219 C 256.5 82.722656 258.320312 84.355469 259.691406 86.339844 L 259.691406 80.789062 Z M 247.90625 83.8125 C 243.582031 83.785156 239.589844 86.125 237.503906 89.910156 C 235.320312 93.703125 235.320312 98.371094 237.503906 102.164062 C 238.535156 104.050781 240.058594 105.621094 241.914062 106.714844 C 243.707031 107.785156 245.761719 108.351562 247.855469 108.34375 C 249.984375 108.34375 252.078125 107.785156 253.925781 106.726562 C 255.773438 105.710938 257.304688 104.191406 258.335938 102.351562 C 259.386719 100.441406 259.921875 98.289062 259.882812 96.109375 C 259.980469 92.8125 258.730469 89.621094 256.417969 87.273438 C 254.191406 84.976562 251.109375 83.707031 247.914062 83.773438 Z M 269.425781 80.796875 L 273.585938 80.796875 L 283.773438 102.90625 L 293.847656 80.796875 L 298.011719 80.796875 L 284.132812 111.136719 L 283.441406 111.136719 Z M 329.476562 101.066406 L 332.796875 102.796875 C 331.867188 104.714844 330.601562 106.453125 329.058594 107.929688 C 327.671875 109.214844 326.050781 110.222656 324.285156 110.898438 C 322.363281 111.605469 320.332031 111.949219 318.285156 111.917969 C 313.339844 111.917969 309.464844 110.308594 306.671875 107.089844 C 303.972656 104.066406 302.488281 100.144531 302.507812 96.089844 C 302.46875 92.355469 303.722656 88.71875 306.054688 85.832031 C 308.890625 82.078125 313.375 79.933594 318.082031 80.089844 C 322.917969 79.929688 327.535156 82.121094 330.46875 85.972656 C 332.664062 88.746094 333.773438 92.214844 333.789062 96.378906 L 306.472656 96.378906 C 306.425781 99.597656 307.640625 102.707031 309.851562 105.042969 C 311.941406 107.261719 314.871094 108.488281 317.917969 108.421875 C 319.457031 108.421875 320.984375 108.152344 322.425781 107.617188 C 323.789062 107.132812 325.050781 106.410156 326.152344 105.480469 C 327.472656 104.207031 328.59375 102.738281 329.472656 101.128906 Z M 329.476562 92.921875 C 329.085938 91.117188 328.308594 89.417969 327.203125 87.9375 C 326.140625 86.640625 324.789062 85.609375 323.257812 84.925781 C 321.648438 84.171875 319.894531 83.777344 318.117188 83.777344 C 315.285156 83.722656 312.539062 84.75 310.4375 86.652344 C 308.875 88.058594 307.695312 90.140625 306.894531 92.894531 Z M 340.457031 69.113281 L 344.363281 69.113281 L 344.363281 111.167969 L 340.457031 111.167969 Z M 340.457031 69.113281 "/>
</g>
</svg>
