<?xml version="1.0" encoding="UTF-8"?>
<svg xmlns="http://www.w3.org/2000/svg" xmlns:xlink="http://www.w3.org/1999/xlink" width="361px" height="px" viewBox="0 0 362 181" version="1.1">
<g id="surface1">
<path style=" stroke:none;fill-rule:evenodd;fill:rgb(0%,84.705882%,100%);fill-opacity:1;" d="M 89.039062 90.402344 C 89.039062 96.195312 84.34375 100.890625 78.554688 100.890625 C 72.765625 100.890625 68.070312 96.195312 68.070312 90.402344 C 68.070312 84.613281 72.765625 79.917969 78.554688 79.917969 C 84.34375 79.917969 89.039062 84.613281 89.039062 90.402344 Z M 89.039062 90.402344 "/>
<path style="fill:none;stroke-width:24;stroke-linecap:butt;stroke-linejoin:miter;stroke:rgb(0%,84.705882%,100%);stroke-opacity:1;stroke-miterlimit:4;" d="M 269.52699 135.62478 C 336.888159 135.62478 399.464517 145.287855 446.639764 161.530046 C 503.478086 181.099176 538.429636 210.761267 538.429636 237.619757 C 538.429636 265.618378 501.384731 297.130845 440.341008 317.354148 C 394.193748 332.643115 333.467767 340.62403 269.52699 340.62403 C 203.978817 340.62403 141.907107 333.129072 95.236508 317.185932 C 36.192687 297.00001 0.624345 265.076349 0.624345 237.619757 C 0.624345 210.985555 33.987188 181.547752 90.040502 162.016004 C 137.383965 145.493453 201.511648 135.62478 269.52699 135.62478 Z M 269.52699 135.62478 " transform="matrix(0.208995,0,0,0.208995,22.224984,40.741082)"/>
<path style="fill:none;stroke-width:24;stroke-linecap:butt;stroke-linejoin:miter;stroke:rgb(0%,84.705882%,100%);stroke-opacity:1;stroke-miterlimit:4;" d="M 180.727625 186.930664 C 214.389519 128.578398 254.013736 79.197652 291.656742 46.43291 C 337.000303 6.97691 380.157056 -8.480273 403.426938 4.939627 C 427.668735 18.920247 436.47204 66.749667 423.500716 129.737219 C 413.688115 177.342352 390.268708 233.937695 358.326356 289.336836 C 325.580305 346.119087 288.068133 396.154006 250.948466 428.601006 C 203.960126 469.664404 158.541802 484.542176 134.767272 470.823226 C 111.684296 457.51547 102.862301 413.89145 113.927177 355.576565 C 123.272511 306.307963 146.74799 245.843651 180.727625 186.911974 Z M 180.727625 186.930664 " transform="matrix(0.208995,0,0,0.208995,22.224984,40.741082)"/>
<path style="fill:none;stroke-width:24;stroke-linecap:butt;stroke-linejoin:miter;stroke:rgb(0%,84.705882%,100%);stroke-opacity:1;stroke-miterlimit:4;" d="M 180.821079 289.486362 C 147.065732 231.208858 124.0949 172.202418 114.506587 123.232867 C 102.974445 64.226427 111.123576 19.125844 134.374768 5.668563 C 158.597874 -8.368129 204.427393 7.911443 252.518482 50.60093 C 288.871832 82.879714 326.197097 131.43807 358.232902 186.781139 C 391.072407 243.507317 415.688017 300.981123 425.27633 349.352572 C 437.387883 410.564511 427.575282 457.347254 403.819443 471.103586 C 380.755158 484.448723 338.570319 470.318578 293.581881 431.591513 C 255.565061 398.882843 214.894167 348.343276 180.821079 289.486362 Z M 180.821079 289.486362 " transform="matrix(0.208995,0,0,0.208995,22.224984,40.741082)"/>
<path style=" stroke:none;fill-rule:evenodd;fill:rgb(0%,84.705882%,100%);fill-opacity:1;" d="M 194.9375 117.191406 L 182.085938 97.777344 C 188.582031 97.203125 194.433594 92.496094 194.433594 83.898438 C 194.433594 75.152344 188.226562 69.550781 179.515625 69.550781 L 160.390625 69.550781 L 160.390625 117.15625 L 166.316406 117.15625 L 166.316406 98.242188 L 175.808594 98.242188 L 187.941406 117.15625 Z M 178.808594 93.066406 L 166.316406 93.066406 L 166.316406 74.867188 L 178.808594 74.867188 C 184.449219 74.867188 188.300781 78.578125 188.300781 83.933594 C 188.300781 89.289062 184.445312 93.074219 178.808594 93.074219 Z M 216.992188 118.046875 C 222.632812 118.046875 227.269531 116.191406 230.695312 112.765625 L 228.125 109.265625 C 225.410156 112.050781 221.417969 113.621094 217.492188 113.621094 C 210.070312 113.621094 205.5 108.195312 205.074219 101.703125 L 232.976562 101.703125 L 232.976562 100.347656 C 232.976562 90 226.839844 81.859375 216.414062 81.859375 C 206.566406 81.859375 199.433594 89.925781 199.433594 99.917969 C 199.433594 110.695312 206.785156 118.019531 216.988281 118.019531 Z M 227.699219 97.773438 L 205.074219 97.773438 C 205.363281 92.492188 208.996094 86.28125 216.351562 86.28125 C 224.203125 86.28125 227.628906 92.632812 227.699219 97.773438 Z M 268.527344 117.1875 L 268.527344 93.492188 C 268.527344 85.140625 262.464844 81.855469 255.183594 81.855469 C 249.542969 81.855469 245.121094 83.710938 241.410156 87.566406 L 243.90625 91.277344 C 246.972656 87.996094 250.332031 86.496094 254.472656 86.496094 C 259.464844 86.496094 263.179688 89.136719 263.179688 93.777344 L 263.179688 99.984375 C 260.394531 96.773438 256.472656 95.273438 251.757812 95.273438 C 245.90625 95.273438 239.691406 98.914062 239.691406 106.621094 C 239.691406 114.113281 245.902344 118.042969 251.757812 118.042969 C 256.398438 118.042969 260.328125 116.402344 263.179688 113.261719 L 263.179688 117.183594 Z M 253.6875 114.191406 C 248.691406 114.191406 245.191406 111.050781 245.191406 106.695312 C 245.191406 102.269531 248.691406 99.128906 253.6875 99.128906 C 257.46875 99.128906 261.109375 100.558594 263.179688 103.414062 L 263.179688 109.910156 C 261.109375 112.761719 257.46875 114.191406 253.6875 114.191406 Z M 294.410156 118.046875 C 300.691406 118.046875 304.402344 115.476562 307.046875 112.050781 L 303.476562 108.769531 C 301.191406 111.835938 298.265625 113.265625 294.726562 113.265625 C 287.375 113.265625 282.8125 107.554688 282.8125 99.917969 C 282.8125 92.28125 287.378906 86.644531 294.726562 86.644531 C 298.296875 86.644531 301.222656 88.003906 303.476562 91.140625 L 307.046875 87.855469 C 304.40625 84.429688 300.691406 81.863281 294.410156 81.863281 C 284.132812 81.863281 277.210938 89.714844 277.210938 99.921875 C 277.210938 110.199219 284.132812 118.019531 294.410156 118.019531 Z M 323.25 118.046875 C 326.386719 118.046875 328.320312 117.117188 329.675781 115.832031 L 328.109375 111.835938 C 327.394531 112.621094 325.996094 113.265625 324.464844 113.265625 C 322.113281 113.265625 320.96875 111.410156 320.96875 108.839844 L 320.96875 87.425781 L 327.964844 87.425781 L 327.964844 82.71875 L 320.96875 82.71875 L 320.96875 73.296875 L 315.613281 73.296875 L 315.613281 82.71875 L 309.902344 82.71875 L 309.902344 87.429688 L 315.613281 87.429688 L 315.613281 109.984375 C 315.613281 115.125 318.183594 118.050781 323.25 118.050781 Z M 323.25 118.046875 "/>
</g>
</svg>
