<?xml version="1.0" encoding="UTF-8"?>
<svg xmlns="http://www.w3.org/2000/svg" xmlns:xlink="http://www.w3.org/1999/xlink" width="361px" height="px" viewBox="0 0 362 181" version="1.1">
<defs>
<linearGradient id="linear0" gradientUnits="userSpaceOnUse" x1="7.294" y1="0.881" x2="42.237" y2="59.119" gradientTransform="matrix(3.016667,0,0,3.016667,4.021217,0)">
<stop offset="0" style="stop-color:rgb(13.72549%,51.372549%,68.235294%);stop-opacity:1;"/>
<stop offset="1" style="stop-color:rgb(42.745098%,84.313725%,72.54902%);stop-opacity:1;"/>
</linearGradient>
</defs>
<g id="surface1">
<path style=" stroke:none;fill-rule:evenodd;fill:url(#linear0);" d="M 52.378906 79.960938 C 55.890625 65.902344 64.675781 58.875 78.730469 58.875 C 99.820312 58.875 102.449219 74.679688 112.988281 77.320312 C 120.019531 79.078125 126.167969 76.445312 131.4375 69.417969 C 127.925781 83.472656 119.136719 90.5 105.085938 90.5 C 84 90.5 81.367188 74.691406 70.828125 72.054688 C 63.800781 70.292969 57.652344 72.929688 52.382812 79.957031 Z M 26.023438 111.585938 C 29.542969 97.527344 38.320312 90.5 52.378906 90.5 C 73.464844 90.5 76.09375 106.308594 86.636719 108.945312 C 93.664062 110.707031 99.8125 108.070312 105.082031 101.042969 C 101.570312 115.101562 92.785156 122.128906 78.730469 122.128906 C 57.640625 122.128906 55.011719 106.324219 44.472656 103.683594 C 37.441406 101.925781 31.292969 104.558594 26.023438 111.585938 Z M 26.023438 111.585938 "/>
<path style=" stroke:none;fill-rule:evenodd;fill:rgb(14.117647%,16.078431%,18.039216%);fill-opacity:1;" d="M 150.621094 83.195312 L 143.722656 83.195312 L 143.722656 79.0625 L 162.335938 79.0625 L 162.335938 83.195312 L 155.441406 83.195312 L 155.441406 101.9375 L 150.621094 101.9375 Z M 171.347656 99.824219 C 170.707031 100.550781 169.953125 101.167969 169.113281 101.648438 C 168.292969 102.121094 167.230469 102.355469 165.921875 102.355469 C 165.203125 102.359375 164.484375 102.261719 163.789062 102.066406 C 163.113281 101.871094 162.523438 101.574219 162.023438 101.171875 C 161.519531 100.765625 161.117188 100.25 160.820312 99.617188 C 160.527344 98.984375 160.367188 98.234375 160.367188 97.355469 C 160.367188 96.203125 160.625 95.261719 161.140625 94.535156 C 161.660156 93.804688 162.355469 93.21875 163.164062 92.835938 C 163.996094 92.425781 164.929688 92.140625 165.96875 91.96875 C 167.015625 91.796875 168.070312 91.691406 169.132812 91.648438 L 171.28125 91.554688 L 171.28125 90.71875 C 171.28125 89.695312 171 88.988281 170.429688 88.609375 C 169.859375 88.226562 169.191406 88.035156 168.425781 88.035156 C 166.648438 88.035156 165.632812 88.707031 165.378906 90.054688 L 161.277344 89.671875 C 161.574219 87.921875 162.34375 86.65625 163.585938 85.871094 C 164.824219 85.089844 166.496094 84.703125 168.59375 84.703125 C 169.875 84.703125 170.964844 84.851562 171.867188 85.167969 C 172.765625 85.480469 173.488281 85.921875 174.03125 86.492188 C 174.589844 87.089844 174.996094 87.808594 175.21875 88.59375 C 175.46875 89.414062 175.589844 90.34375 175.589844 91.367188 L 175.589844 101.941406 L 171.347656 101.941406 Z M 171.25 94.472656 L 169.257812 94.570312 C 168.316406 94.609375 167.558594 94.707031 166.980469 94.859375 C 166.40625 95.011719 165.957031 95.195312 165.652344 95.421875 C 165.351562 95.644531 165.132812 95.902344 165.03125 96.203125 C 164.925781 96.507812 164.871094 96.839844 164.871094 97.199219 C 164.871094 97.753906 165.0625 98.195312 165.441406 98.511719 C 165.824219 98.828125 166.363281 98.996094 167.042969 98.996094 C 168.199219 98.996094 169.140625 98.730469 169.867188 98.191406 C 170.273438 97.890625 170.609375 97.511719 170.859375 97.054688 C 171.113281 96.601562 171.242188 96.023438 171.242188 95.339844 L 171.242188 94.476562 Z M 179.230469 85.210938 L 183.726562 85.210938 L 183.726562 101.9375 L 179.230469 101.9375 Z M 179.171875 79.058594 L 183.789062 79.058594 L 183.789062 83.09375 L 179.171875 83.09375 Z M 187.570312 79.058594 L 192.066406 79.058594 L 192.066406 101.9375 L 187.570312 101.9375 Z M 194.078125 85.210938 L 198.953125 85.210938 L 201.296875 96.296875 L 204.5 85.371094 L 208.414062 85.371094 L 211.433594 96.332031 L 213.777344 85.246094 L 218.460938 85.246094 L 213.582031 101.96875 L 209.21875 101.96875 L 206.230469 90.945312 L 203.214844 101.96875 L 198.949219 101.96875 L 194.074219 85.246094 Z M 220.503906 85.210938 L 225 85.210938 L 225 101.9375 L 220.503906 101.9375 Z M 220.441406 79.058594 L 225.058594 79.058594 L 225.058594 83.09375 L 220.441406 83.09375 Z M 228.8125 85.210938 L 233.175781 85.210938 L 233.175781 87.519531 C 233.839844 86.539062 234.625 85.820312 235.527344 85.371094 C 236.433594 84.921875 237.382812 84.699219 238.363281 84.699219 C 240.269531 84.699219 241.683594 85.195312 242.601562 86.1875 C 243.523438 87.183594 243.984375 88.746094 243.984375 90.882812 L 243.984375 101.9375 L 239.492188 101.9375 L 239.492188 91.496094 C 239.492188 90.289062 239.269531 89.519531 238.816406 89.089844 C 238.363281 88.664062 237.769531 88.453125 237.023438 88.453125 C 236.449219 88.453125 235.949219 88.542969 235.527344 88.707031 C 235.109375 88.875 234.722656 89.125 234.359375 89.445312 C 234.058594 89.746094 233.808594 90.101562 233.605469 90.519531 C 233.402344 90.941406 233.300781 91.40625 233.304688 91.878906 L 233.304688 101.9375 L 228.777344 101.9375 L 228.777344 85.214844 Z M 259.21875 99.726562 C 258.074219 101.472656 256.109375 102.503906 254.019531 102.453125 C 251.667969 102.453125 249.917969 101.660156 248.757812 100.082031 C 247.597656 98.5 247.027344 96.308594 247.027344 93.511719 C 247.011719 92.304688 247.179688 91.101562 247.527344 89.941406 C 247.859375 88.863281 248.332031 87.933594 248.953125 87.15625 C 249.5625 86.382812 250.34375 85.765625 251.230469 85.34375 C 252.136719 84.921875 253.148438 84.703125 254.277344 84.703125 C 255.109375 84.703125 255.9375 84.855469 256.761719 85.15625 C 257.585938 85.460938 258.359375 86.0625 259.089844 86.890625 L 259.089844 79.070312 L 263.585938 79.070312 L 263.585938 101.949219 L 259.222656 101.949219 L 259.222656 99.738281 Z M 259.121094 93.382812 C 259.121094 92.316406 259.03125 91.460938 258.820312 90.820312 C 258.609375 90.175781 258.34375 89.660156 257.941406 89.25 C 257.554688 88.867188 257.132812 88.648438 256.671875 88.496094 C 256.230469 88.378906 255.773438 88.320312 255.3125 88.320312 C 254.832031 88.320312 254.355469 88.417969 253.914062 88.613281 C 253.476562 88.804688 253.09375 89.101562 252.761719 89.507812 C 252.425781 89.910156 252.167969 90.449219 251.976562 91.105469 C 251.785156 91.765625 251.6875 92.554688 251.6875 93.476562 C 251.6875 94.480469 251.777344 95.316406 251.988281 95.992188 C 252.199219 96.667969 252.417969 97.210938 252.742188 97.628906 C 253.066406 98.042969 253.4375 98.34375 253.863281 98.523438 C 254.292969 98.707031 254.753906 98.824219 255.246094 98.824219 C 256.3125 98.824219 257.191406 98.515625 257.875 97.898438 C 258.308594 97.460938 258.632812 96.929688 258.820312 96.34375 C 259.019531 95.734375 259.121094 94.949219 259.121094 93.992188 Z M 294.242188 94.023438 C 294.132812 95.242188 293.851562 96.367188 293.390625 97.402344 C 292.945312 98.414062 292.304688 99.332031 291.5 100.09375 C 290.648438 100.882812 289.644531 101.488281 288.546875 101.871094 C 287.382812 102.292969 286.03125 102.507812 284.488281 102.507812 C 282.757812 102.507812 281.230469 102.21875 279.917969 101.644531 C 278.640625 101.097656 277.511719 100.265625 276.613281 99.210938 C 275.722656 98.164062 275.058594 96.894531 274.605469 95.40625 C 274.15625 93.921875 273.933594 92.28125 273.933594 90.492188 C 273.933594 88.632812 274.175781 86.96875 274.671875 85.492188 C 275.164062 84.015625 275.871094 82.757812 276.789062 81.710938 C 277.707031 80.664062 278.820312 79.863281 280.125 79.308594 C 281.429688 78.753906 282.910156 78.476562 284.558594 78.476562 C 286.011719 78.476562 287.28125 78.65625 288.359375 79.019531 C 289.4375 79.378906 290.351562 79.90625 291.089844 80.585938 C 291.828125 81.269531 292.417969 82.09375 292.871094 83.054688 C 293.339844 84.085938 293.675781 85.175781 293.863281 86.292969 L 289.109375 86.902344 C 288.875 85.554688 288.417969 84.496094 287.753906 83.726562 C 287.089844 82.957031 286.011719 82.574219 284.554688 82.574219 C 282.714844 82.574219 281.320312 83.261719 280.371094 84.640625 C 279.425781 86.019531 278.9375 87.964844 278.9375 90.488281 C 278.9375 93.03125 279.453125 95.011719 280.464844 96.351562 C 281.398438 97.679688 282.933594 98.449219 284.554688 98.402344 C 286.035156 98.402344 287.121094 98.023438 287.8125 97.265625 C 288.507812 96.507812 288.9375 95.425781 289.109375 94.015625 Z M 301.230469 94.476562 C 301.335938 95.882812 301.792969 96.910156 302.589844 97.554688 C 303.386719 98.195312 304.570312 98.519531 306.132812 98.519531 C 306.882812 98.519531 307.515625 98.4375 308.027344 98.277344 C 308.542969 98.117188 308.957031 97.902344 309.28125 97.636719 C 309.589844 97.386719 309.824219 97.0625 309.96875 96.691406 C 310.109375 96.3125 310.179688 95.914062 310.175781 95.507812 C 310.175781 94.90625 309.957031 94.347656 309.507812 93.824219 C 309.058594 93.300781 308.234375 92.917969 307.035156 92.6875 L 304.046875 92.144531 C 302.839844 91.933594 301.832031 91.652344 300.933594 91.3125 C 300.035156 90.96875 299.28125 90.527344 298.671875 89.984375 C 298.0625 89.441406 297.597656 88.769531 297.277344 87.980469 C 296.957031 87.191406 296.792969 86.25 296.792969 85.160156 C 296.773438 84.160156 297 83.167969 297.453125 82.277344 C 297.886719 81.449219 298.515625 80.734375 299.28125 80.195312 C 300.066406 79.640625 301 79.21875 302.085938 78.929688 C 303.171875 78.636719 304.378906 78.496094 305.683594 78.496094 C 307.351562 78.496094 308.742188 78.691406 309.855469 79.070312 C 310.96875 79.449219 311.867188 79.960938 312.550781 80.59375 C 313.234375 81.226562 313.742188 81.949219 314.074219 82.789062 C 314.40625 83.628906 314.625 84.488281 314.738281 85.382812 L 310.210938 85.957031 C 309.976562 84.695312 309.523438 83.785156 308.855469 83.234375 C 308.1875 82.679688 307.160156 82.398438 305.789062 82.398438 C 304.976562 82.398438 304.3125 82.46875 303.785156 82.613281 C 303.257812 82.753906 302.835938 82.929688 302.515625 83.15625 C 302.222656 83.347656 301.988281 83.617188 301.839844 83.9375 C 301.714844 84.242188 301.648438 84.546875 301.648438 84.867188 C 301.648438 85.722656 301.890625 86.363281 302.371094 86.789062 C 302.855469 87.214844 303.667969 87.550781 304.824219 87.785156 L 307.96875 88.394531 C 310.453125 88.886719 312.269531 89.683594 313.429688 90.777344 C 314.585938 91.871094 315.160156 93.492188 315.160156 95.535156 C 315.160156 96.535156 314.972656 97.464844 314.597656 98.308594 C 314.214844 99.164062 313.644531 99.917969 312.929688 100.519531 C 312.113281 101.195312 311.167969 101.695312 310.15625 101.996094 C 309.046875 102.347656 307.742188 102.523438 306.238281 102.523438 C 303.113281 102.523438 300.726562 101.859375 299.070312 100.519531 C 297.414062 99.183594 296.515625 97.203125 296.355469 94.480469 L 301.199219 94.480469 Z M 322.046875 94.476562 C 322.152344 95.882812 322.609375 96.910156 323.40625 97.554688 C 324.199219 98.195312 325.394531 98.519531 326.949219 98.519531 C 327.703125 98.519531 328.332031 98.4375 328.851562 98.277344 C 329.367188 98.117188 329.777344 97.902344 330.101562 97.636719 C 330.410156 97.386719 330.648438 97.0625 330.789062 96.691406 C 330.933594 96.3125 331.003906 95.914062 330.996094 95.507812 C 330.988281 94.882812 330.75 94.285156 330.324219 93.824219 C 329.871094 93.300781 329.050781 92.917969 327.851562 92.6875 L 324.863281 92.144531 C 323.65625 91.933594 322.652344 91.652344 321.75 91.3125 C 320.851562 90.96875 320.097656 90.527344 319.488281 89.984375 C 318.878906 89.441406 318.414062 88.769531 318.09375 87.980469 C 317.769531 87.191406 317.609375 86.25 317.609375 85.160156 C 317.589844 84.160156 317.816406 83.167969 318.265625 82.277344 C 318.707031 81.445312 319.316406 80.746094 320.09375 80.164062 C 320.875 79.582031 321.816406 79.1875 322.902344 78.898438 C 323.988281 78.609375 325.195312 78.464844 326.496094 78.464844 C 328.164062 78.464844 329.554688 78.660156 330.667969 79.039062 C 331.78125 79.417969 332.679688 79.929688 333.367188 80.5625 C 334.054688 81.195312 334.558594 81.921875 334.890625 82.757812 C 335.21875 83.597656 335.441406 84.457031 335.554688 85.355469 L 331.027344 85.925781 C 330.792969 84.664062 330.339844 83.753906 329.671875 83.203125 C 329 82.652344 327.976562 82.371094 326.605469 82.371094 C 325.789062 82.371094 325.128906 82.441406 324.597656 82.582031 C 324.070312 82.722656 323.652344 82.902344 323.332031 83.125 C 323.039062 83.316406 322.804688 83.589844 322.65625 83.910156 C 322.527344 84.210938 322.464844 84.519531 322.464844 84.835938 C 322.464844 85.691406 322.703125 86.332031 323.1875 86.757812 C 323.671875 87.183594 324.484375 87.519531 325.644531 87.753906 L 328.816406 88.386719 C 331.300781 88.878906 333.117188 89.675781 334.277344 90.773438 C 335.433594 91.867188 336.007812 93.488281 336.007812 95.527344 C 336.019531 96.480469 335.828125 97.425781 335.449219 98.300781 C 335.066406 99.15625 334.492188 99.910156 333.777344 100.511719 C 333.039062 101.144531 332.117188 101.632812 331 101.992188 C 329.882812 102.347656 328.585938 102.519531 327.089844 102.519531 C 323.960938 102.519531 321.574219 101.855469 319.914062 100.515625 C 318.253906 99.175781 317.363281 97.195312 317.234375 94.476562 Z M 322.046875 94.476562 "/>
</g>
</svg>
